TITLE ""
FILE "1Q_t_0779-0787.mp3" MP3
  TRACK 01 AUDIO
    TITLE "1Q_t_0779-0787_01"
    INDEX 01 00:00:00
  TRACK 02 AUDIO
    TITLE "1Q_t_0779-0787_02"
    INDEX 01 00:01:22
  TRACK 03 AUDIO
    TITLE "1Q_t_0779-0787_03"
    INDEX 01 00:01:29
  TRACK 04 AUDIO
    TITLE "1Q_t_0779-0787_04"
    INDEX 01 00:02:58
  TRACK 05 AUDIO
    TITLE "1Q_t_0779-0787_05"
    INDEX 01 00:02:66
  TRACK 06 AUDIO
    TITLE "1Q_t_0779-0787_06"
    INDEX 01 00:08:45
  TRACK 07 AUDIO
    TITLE "1Q_t_0779-0787_07"
    INDEX 01 00:09:17
  TRACK 08 AUDIO
    TITLE "1Q_t_0779-0787_08"
    INDEX 01 00:10:38
  TRACK 09 AUDIO
    TITLE "1Q_t_0779-0787_09"
    INDEX 01 00:10:50
  TRACK 10 AUDIO
    TITLE "1Q_t_0779-0787_10"
    INDEX 01 00:13:03
  TRACK 11 AUDIO
    TITLE "1Q_t_0779-0787_11"
    INDEX 01 00:13:09
  TRACK 12 AUDIO
    TITLE "1Q_t_0779-0787_12"
    INDEX 01 00:19:06
  TRACK 13 AUDIO
    TITLE "1Q_t_0779-0787_13"
    INDEX 01 00:19:53
  TRACK 14 AUDIO
    TITLE "1Q_t_0779-0787_14"
    INDEX 01 00:20:60
  TRACK 15 AUDIO
    TITLE "1Q_t_0779-0787_15"
    INDEX 01 00:20:72
  TRACK 16 AUDIO
    TITLE "1Q_t_0779-0787_16"
    INDEX 01 00:21:69
  TRACK 17 AUDIO
    TITLE "1Q_t_0779-0787_17"
    INDEX 01 00:22:02
  TRACK 18 AUDIO
    TITLE "1Q_t_0779-0787_18"
    INDEX 01 00:26:70
  TRACK 19 AUDIO
    TITLE "1Q_t_0779-0787_19"
    INDEX 01 00:27:44
  TRACK 20 AUDIO
    TITLE "1Q_t_0779-0787_20"
    INDEX 01 00:28:67
  TRACK 21 AUDIO
    TITLE "1Q_t_0779-0787_21"
    INDEX 01 00:29:35
  TRACK 22 AUDIO
    TITLE "1Q_t_0779-0787_22"
    INDEX 01 00:30:51
  TRACK 23 AUDIO
    TITLE "1Q_t_0779-0787_23"
    INDEX 01 00:30:62
  TRACK 24 AUDIO
    TITLE "1Q_t_0779-0787_24"
    INDEX 01 00:32:01
  TRACK 25 AUDIO
    TITLE "1Q_t_0779-0787_25"
    INDEX 01 00:32:06
  TRACK 26 AUDIO
    TITLE "1Q_t_0779-0787_26"
    INDEX 01 00:36:08
  TRACK 27 AUDIO
    TITLE "1Q_t_0779-0787_27"
    INDEX 01 00:36:53
  TRACK 28 AUDIO
    TITLE "1Q_t_0779-0787_28"
    INDEX 01 00:37:60
  TRACK 29 AUDIO
    TITLE "1Q_t_0779-0787_29"
    INDEX 01 00:37:68
  TRACK 30 AUDIO
    TITLE "1Q_t_0779-0787_30"
    INDEX 01 00:40:39
  TRACK 31 AUDIO
    TITLE "1Q_t_0779-0787_31"
    INDEX 01 00:40:47
  TRACK 32 AUDIO
    TITLE "1Q_t_0779-0787_32"
    INDEX 01 00:46:30
  TRACK 33 AUDIO
    TITLE "1Q_t_0779-0787_33"
    INDEX 01 00:46:75
  TRACK 34 AUDIO
    TITLE "1Q_t_0779-0787_34"
    INDEX 01 00:47:69
  TRACK 35 AUDIO
    TITLE "1Q_t_0779-0787_35"
    INDEX 01 00:48:03
  TRACK 36 AUDIO
    TITLE "1Q_t_0779-0787_36"
    INDEX 01 00:51:45
  TRACK 37 AUDIO
    TITLE "1Q_t_0779-0787_37"
    INDEX 01 00:51:53
  TRACK 38 AUDIO
    TITLE "1Q_t_0779-0787_38"
    INDEX 01 00:57:34
  TRACK 39 AUDIO
    TITLE "1Q_t_0779-0787_39"
    INDEX 01 00:58:06
  TRACK 40 AUDIO
    TITLE "1Q_t_0779-0787_40"
    INDEX 01 00:59:33
  TRACK 41 AUDIO
    TITLE "1Q_t_0779-0787_41"
    INDEX 01 00:59:42
  TRACK 42 AUDIO
    TITLE "1Q_t_0779-0787_42"
    INDEX 01 01:00:52
  TRACK 43 AUDIO
    TITLE "1Q_t_0779-0787_43"
    INDEX 01 01:00:60
  TRACK 44 AUDIO
    TITLE "1Q_t_0779-0787_44"
    INDEX 01 01:04:22
  TRACK 45 AUDIO
    TITLE "1Q_t_0779-0787_45"
    INDEX 01 01:04:69
  TRACK 46 AUDIO
    TITLE "1Q_t_0779-0787_46"
    INDEX 01 01:06:01
  TRACK 47 AUDIO
    TITLE "1Q_t_0779-0787_47"
    INDEX 01 01:06:11
  TRACK 48 AUDIO
    TITLE "1Q_t_0779-0787_48"
    INDEX 01 01:07:71
  TRACK 49 AUDIO
    TITLE "1Q_t_0779-0787_49"
    INDEX 01 01:08:02
  TRACK 50 AUDIO
    TITLE "1Q_t_0779-0787_50"
    INDEX 01 01:12:45
  TRACK 51 AUDIO
    TITLE "1Q_t_0779-0787_51"
    INDEX 01 01:13:15
  TRACK 52 AUDIO
    TITLE "1Q_t_0779-0787_52"
    INDEX 01 01:14:36
  TRACK 53 AUDIO
    TITLE "1Q_t_0779-0787_53"
    INDEX 01 01:14:46
  TRACK 54 AUDIO
    TITLE "1Q_t_0779-0787_54"
    INDEX 01 01:15:61
  TRACK 55 AUDIO
    TITLE "1Q_t_0779-0787_55"
    INDEX 01 01:15:69
  TRACK 56 AUDIO
    TITLE "1Q_t_0779-0787_56"
    INDEX 01 01:19:49
